<?xml version="1.0" standalone="no"?>
<!DOCTYPE svg PUBLIC "-//W3C//DTD SVG 20010904//EN"
 "http://www.w3.org/TR/2001/REC-SVG-20010904/DTD/svg10.dtd">
<svg version="1.0" xmlns="http://www.w3.org/2000/svg"
 width="662.000000pt" height="658.000000pt" viewBox="0 0 662.000000 658.000000"
 preserveAspectRatio="xMidYMid meet">

<g transform="translate(0.000000,658.000000) scale(0.100000,-0.100000)"
fill="#000000" stroke="none">
<path d="M2880 6445 c-237 -32 -339 -53 -530 -114 -134 -43 -375 -136 -435
-169 -326 -178 -570 -351 -783 -555 -145 -139 -172 -169 -283 -307 -411 -510
-660 -1093 -710 -1661 -15 -172 -6 -682 15 -829 31 -224 83 -407 183 -655 214
-529 514 -929 1000 -1335 188 -157 544 -361 825 -473 190 -75 482 -150 711
-182 426 -58 774 -39 1196 66 193 48 306 88 491 171 314 142 464 237 735 464
273 228 540 537 729 842 62 101 186 352 234 472 60 152 155 512 186 710 34
217 30 596 -10 885 -40 285 -133 576 -279 874 -89 181 -214 393 -294 501 -278
375 -593 663 -971 887 -269 160 -472 246 -805 342 -178 51 -451 83 -760 87
-232 3 -280 1 -445 -21z m850 -95 c357 -47 668 -148 985 -321 414 -225 745
-511 1037 -894 175 -230 357 -571 454 -848 119 -342 160 -642 151 -1105 -5
-262 -7 -285 -36 -424 -99 -464 -268 -861 -513 -1203 -264 -369 -626 -706
-973 -907 -287 -167 -603 -287 -925 -352 -458 -92 -821 -86 -1304 20 -376 83
-735 242 -1084 482 -294 202 -691 630 -875 943 -149 254 -294 601 -350 839
-92 390 -102 988 -23 1335 3 11 14 63 26 115 114 503 478 1123 881 1501 261
244 614 481 899 602 295 126 587 197 975 236 146 15 488 6 675 -19z"/>
<path d="M3239 6147 c-73 -49 -57 -115 37 -150 27 -10 55 -24 63 -32 11 -11
10 -15 -7 -24 -15 -8 -30 -7 -59 2 -47 16 -73 11 -73 -13 0 -47 102 -82 164
-56 44 18 90 78 81 106 -7 21 -70 58 -137 79 -47 15 -55 27 -28 41 15 8 31 8
60 -1 31 -9 43 -9 55 1 23 19 18 38 -15 55 -43 22 -101 19 -141 -8z"/>
<path d="M2949 6145 c-3 -2 -51 -12 -107 -21 -78 -13 -102 -21 -102 -32 0 -9
7 -59 16 -111 8 -53 18 -110 20 -128 l5 -32 82 5 c126 8 129 9 125 47 l-3 32
-67 -3 c-61 -2 -68 -1 -68 17 0 15 10 21 48 27 44 8 47 11 50 42 3 29 1 32
-25 32 -15 0 -43 -4 -60 -9 -27 -8 -33 -7 -38 10 -10 30 1 37 65 44 63 7 80
21 80 64 0 19 -10 27 -21 16z"/>
<path d="M3721 6098 c-5 -18 -14 -65 -19 -104 -6 -39 -17 -85 -26 -103 -16
-31 -16 -31 9 -41 25 -9 75 -14 75 -7 0 9 41 234 45 247 4 11 -6 20 -28 28
-45 16 -44 16 -56 -20z"/>
<path d="M2405 6022 c-107 -37 -110 -39 -109 -67 1 -39 69 -248 81 -252 6 -2
22 1 36 6 l27 10 -20 47 c-11 25 -18 49 -15 54 2 4 25 13 51 20 55 16 74 33
67 60 -7 25 -35 25 -91 0 l-43 -19 -11 25 c-15 31 -8 36 84 64 68 21 86 39 72
74 -8 20 0 22 -129 -22z"/>
<path d="M4039 6020 c-20 -11 -49 -34 -64 -52 -25 -29 -27 -38 -22 -86 9 -86
64 -132 158 -132 48 0 55 3 95 44 42 41 49 60 45 111 -10 111 -113 167 -212
115z m119 -77 c18 -25 15 -77 -7 -97 -29 -26 -89 -18 -114 16 -18 24 -19 30
-7 58 7 18 23 36 34 41 29 12 78 2 94 -18z"/>
<path d="M4490 5854 c-6 -14 -22 -36 -37 -49 -16 -13 -44 -53 -63 -89 l-34
-65 23 -25 c14 -15 28 -26 33 -26 4 0 24 32 44 71 19 39 37 69 39 68 2 -2 15
-46 30 -98 34 -123 50 -153 77 -149 15 2 28 21 48 68 15 36 39 91 54 123 33
71 31 91 -9 95 -29 3 -32 0 -55 -63 l-25 -67 -17 39 c-10 21 -18 54 -18 73 0
46 -16 101 -32 112 -25 15 -49 8 -58 -18z"/>
<path d="M1924 5806 c-70 -31 -113 -136 -84 -205 17 -43 81 -83 140 -89 49 -4
52 -3 89 36 50 53 69 123 47 175 -28 67 -129 111 -192 83z m114 -102 c28 -32
28 -46 -4 -83 -47 -57 -134 -28 -134 44 0 71 87 96 138 39z"/>
<path d="M3050 5614 c-242 -29 -415 -73 -600 -151 -471 -200 -905 -594 -1114
-1011 -53 -105 -57 -129 -21 -138 39 -10 51 0 97 81 86 152 210 330 295 423
173 188 405 361 657 488 316 161 694 236 1070 214 393 -24 670 -120 1046 -365
179 -116 350 -272 484 -440 96 -120 125 -164 194 -291 32 -59 65 -112 73 -117
9 -5 28 -7 44 -3 25 7 27 10 22 46 -17 127 -222 427 -424 621 -134 128 -227
203 -374 299 -231 152 -501 269 -733 319 -188 41 -496 51 -716 25z"/>
<path d="M1535 5521 c-16 -10 -51 -41 -77 -67 l-47 -49 101 -102 c56 -57 106
-100 112 -96 6 3 19 13 29 21 17 15 16 17 -15 49 -27 28 -30 35 -18 44 8 5 33
7 55 4 79 -13 88 -11 104 17 19 33 13 40 -42 47 l-42 6 -5 55 c-5 51 -8 56
-40 72 -45 23 -78 23 -115 -1z m85 -90 c0 -11 -11 -32 -24 -48 -24 -27 -24
-28 -45 -9 -25 23 -26 34 -4 58 23 25 73 24 73 -1z"/>
<path d="M4985 5479 c-32 -11 -71 -29 -86 -40 -15 -10 -31 -19 -37 -19 -22 0
-102 -42 -102 -54 0 -6 15 -27 34 -45 31 -30 34 -31 50 -16 9 9 16 23 16 31 0
13 24 2 100 -45 10 -6 15 -26 15 -57 0 -54 23 -80 49 -54 19 19 88 262 84 292
-4 31 -46 34 -123 7z m25 -109 c0 -48 -11 -51 -40 -10 l-21 30 23 9 c36 15 38
13 38 -29z"/>
<path d="M3179 5232 c-24 -16 -55 -48 -69 -70 l-25 -41 -72 -1 c-39 0 -84 -5
-100 -11 -69 -26 -122 -110 -123 -192 0 -62 21 -107 72 -153 39 -35 43 -36 99
-31 l58 5 3 -46 3 -47 270 2 270 2 6 48 c7 53 31 116 66 178 l23 40 0 -40 c0
-22 -9 -60 -20 -84 -22 -49 -19 -61 15 -61 55 0 121 45 151 102 19 37 17 105
-5 153 -10 22 -41 61 -68 87 -53 49 -100 66 -151 54 -79 -20 -76 -21 -121 39
-52 68 -102 94 -182 95 -44 0 -64 -6 -100 -28z m306 -274 c2 -7 -8 -60 -23
-118 -24 -92 -31 -107 -55 -118 -75 -36 -72 73 6 201 28 46 62 63 72 35z
m-311 -62 c31 -41 56 -106 56 -146 0 -22 -5 -29 -27 -33 -15 -3 -32 -3 -39 0
-14 5 -87 220 -79 234 10 14 59 -16 89 -55z"/>
<path d="M5308 5150 c-35 -28 -87 -64 -115 -81 -29 -17 -53 -35 -53 -40 0 -6
38 -49 84 -97 73 -76 86 -85 100 -73 24 20 19 52 -14 91 -17 19 -30 39 -30 46
0 6 34 39 75 73 80 65 95 99 56 121 -30 16 -35 13 -103 -40z"/>
<path d="M1150 5125 c-38 -38 -70 -73 -70 -79 0 -6 25 -29 55 -50 30 -22 81
-61 112 -88 31 -26 60 -48 63 -48 3 1 16 10 29 21 l25 20 -27 26 -26 26 24 48
c58 113 36 177 -63 187 l-51 4 -71 -67z m140 -30 c10 -12 10 -21 0 -45 -21
-50 -37 -57 -67 -28 -29 29 -25 59 10 76 31 15 43 14 57 -3z"/>
<path d="M4294 4663 c-87 -46 -107 -76 -56 -86 15 -3 44 -17 66 -32 21 -14 45
-25 54 -23 8 2 22 22 29 45 13 37 12 46 -2 77 -9 19 -22 37 -30 40 -7 2 -35
-7 -61 -21z"/>
<path d="M2215 4645 c-34 -21 -37 -25 -20 -30 39 -13 50 -22 53 -49 2 -14 10
-26 17 -26 8 0 12 -6 9 -14 -4 -11 0 -13 14 -9 12 3 18 11 16 21 -6 26 7 38
56 48 85 17 48 61 -65 77 -31 4 -49 0 -80 -18z"/>
<path d="M914 4600 c-33 -13 -64 -59 -64 -95 0 -46 47 -95 90 -95 44 0 100 56
100 100 0 42 -14 67 -50 85 -32 17 -45 18 -76 5z"/>
<path d="M5610 4603 c-71 -26 -77 -133 -9 -168 36 -19 63 -19 99 0 60 31 67
90 16 141 -33 33 -66 42 -106 27z"/>
<path d="M3215 4540 l-220 -5 -5 -77 -5 -77 256 0 c141 1 282 -2 314 -6 l57
-8 -7 84 c-4 46 -9 87 -12 92 -2 4 -39 6 -81 5 -42 -1 -176 -5 -297 -8z"/>
<path d="M1715 4088 c-38 -5 -107 -6 -153 -3 -45 3 -87 3 -92 0 -6 -4 2 -23
20 -48 16 -22 30 -50 30 -60 0 -41 -97 -523 -175 -872 -18 -82 -36 -170 -40
-195 -17 -111 -74 -320 -99 -362 l-26 -45 157 -5 c87 -3 161 -4 165 -1 4 2 -3
25 -17 51 -26 52 -27 39 18 232 l12 55 50 7 c89 11 195 9 200 -4 3 -7 14 -65
24 -128 l19 -115 -21 -42 c-11 -24 -19 -45 -16 -47 6 -6 303 -12 308 -6 3 3
-9 34 -27 70 -18 38 -38 102 -47 155 -66 377 -86 487 -99 535 -8 30 -22 95
-31 144 -9 50 -30 147 -45 216 -37 164 -64 345 -55 378 3 15 18 39 32 54 15
15 25 30 22 32 -12 11 -51 12 -114 4z m-46 -755 c21 -94 41 -205 41 -238 0
-18 -5 -20 -70 -17 -49 3 -70 8 -70 17 0 16 26 158 46 253 8 39 19 72 24 72 5
0 18 -39 29 -87z"/>
<path d="M2247 4093 l-159 -4 32 -35 c17 -20 35 -47 40 -59 14 -36 16 -1364 2
-1395 -6 -14 -20 -38 -31 -55 -12 -16 -21 -35 -21 -41 0 -8 78 -11 268 -10
147 1 285 -2 307 -6 l40 -7 2 147 c2 81 6 164 9 185 8 53 -13 49 -72 -13 -53
-56 -81 -66 -191 -72 l-73 -4 0 636 0 636 35 41 c44 51 44 64 3 61 -18 -1
-104 -4 -191 -5z"/>
<path d="M3315 4089 c-27 -5 -96 -7 -152 -3 -57 3 -103 3 -103 -1 0 -4 14 -26
31 -50 30 -41 31 -47 24 -102 -10 -81 -66 -370 -120 -618 -25 -115 -64 -291
-85 -390 -54 -248 -66 -291 -100 -359 -17 -33 -28 -61 -26 -63 3 -3 77 -7 165
-10 147 -5 161 -4 161 11 0 9 -10 30 -22 46 l-22 30 18 97 c10 54 23 115 29
136 l10 37 117 0 116 0 19 -117 c22 -140 22 -156 -6 -194 -12 -17 -18 -33 -14
-37 12 -13 315 -15 315 -2 0 6 -9 27 -19 48 -18 35 -63 242 -96 442 -9 52 -54
285 -100 517 -47 233 -85 440 -85 462 0 31 7 49 31 75 48 55 28 65 -86 45z
m-25 -853 c11 -60 20 -121 20 -135 0 -26 -1 -26 -65 -23 -36 2 -65 7 -65 10 0
20 42 263 52 297 l11 40 14 -40 c7 -22 22 -89 33 -149z"/>
<path d="M5010 4089 c-30 -5 -101 -7 -157 -3 -102 6 -120 1 -89 -25 8 -7 21
-27 30 -45 14 -31 14 -43 -14 -187 -28 -152 -72 -354 -111 -519 -11 -47 -31
-143 -45 -215 -54 -289 -112 -505 -149 -555 l-26 -35 172 -3 c95 -1 174 0 176
2 3 2 -7 22 -21 43 -31 46 -32 59 -2 193 l22 105 126 3 125 3 16 -103 c23
-138 22 -176 -4 -204 -13 -14 -19 -30 -15 -39 5 -15 24 -16 168 -11 89 3 163
8 165 10 3 2 -7 22 -22 44 -15 23 -32 70 -40 113 -81 422 -125 643 -170 859
-29 140 -58 291 -64 335 -6 44 -13 92 -16 107 -3 20 5 39 30 72 33 43 33 46
15 56 -21 11 -23 11 -100 -1z m-35 -837 c30 -167 31 -186 9 -178 -9 3 -43 6
-76 6 l-60 0 7 33 c3 17 12 61 20 97 7 36 21 105 31 155 17 89 18 89 30 58 8
-17 25 -94 39 -171z"/>
<path d="M5360 4094 c0 -3 13 -23 30 -44 16 -20 34 -49 40 -64 6 -18 10 -265
10 -709 l0 -682 -25 -40 c-13 -22 -25 -43 -25 -47 0 -5 75 -8 166 -8 91 0 164
3 162 8 -47 90 -46 87 -46 332 0 254 3 290 23 290 15 0 33 -43 65 -150 33
-115 119 -390 136 -436 l15 -42 147 -4 c81 -2 149 -3 151 -2 2 2 -13 28 -34
59 -73 110 -135 273 -217 569 l-22 79 40 30 c69 55 122 117 139 165 22 64 31
262 16 344 -28 142 -143 265 -297 318 -37 13 -95 22 -161 25 -57 3 -150 7
-208 10 -58 3 -105 2 -105 -1z m393 -249 c45 -7 104 -56 123 -102 22 -51 18
-228 -5 -279 -27 -58 -81 -98 -163 -118 l-28 -6 0 259 c0 241 1 259 18 256 9
-2 34 -7 55 -10z"/>
<path d="M440 4085 c0 -2 12 -17 26 -32 59 -63 56 -27 55 -755 -1 -722 1 -688
-52 -757 -11 -13 -19 -29 -19 -35 0 -12 345 -14 357 -2 4 3 -3 16 -14 29 -41
44 -43 59 -43 301 l0 236 23 4 c12 2 53 9 91 16 185 30 334 169 366 341 13 67
13 207 -1 289 -20 128 -88 237 -186 301 -92 60 -141 69 -390 68 -117 0 -213
-2 -213 -4z m441 -249 c42 -18 74 -47 95 -88 13 -25 15 -57 12 -167 -3 -135
-3 -137 -34 -179 -36 -48 -64 -72 -119 -100 -88 -44 -80 -70 -80 258 l0 290
46 0 c26 0 62 -6 80 -14z"/>
<path d="M3680 4080 c0 -5 11 -22 25 -38 13 -16 28 -40 33 -53 5 -13 8 -330 7
-704 -1 -679 -1 -680 -23 -722 -39 -75 -44 -73 156 -67 254 8 326 30 429 127
72 68 108 145 122 262 6 50 11 248 11 440 0 379 -4 414 -55 516 -51 100 -166
195 -270 223 -57 16 -435 30 -435 16z m416 -250 c23 -10 54 -35 70 -56 l29
-37 3 -416 c3 -470 3 -473 -70 -535 -22 -19 -66 -44 -98 -54 l-57 -20 4 567
c2 311 4 570 3 574 0 11 68 -2 116 -23z"/>
<path d="M1373 2250 c-13 -5 -23 -17 -23 -27 1 -32 82 -170 180 -306 154 -213
338 -388 584 -551 277 -185 571 -299 886 -343 149 -20 421 -23 560 -5 335 45
696 185 975 381 221 155 482 435 627 671 55 89 94 168 87 175 -3 3 -26 8 -51
11 l-45 6 -68 -113 c-37 -63 -103 -161 -145 -219 -79 -106 -271 -305 -367
-380 -157 -121 -417 -264 -593 -323 -255 -87 -476 -121 -730 -114 -496 15
-958 199 -1340 534 -183 160 -300 302 -400 483 -76 136 -82 142 -137 120z"/>
<path d="M5598 2164 c-54 -29 -63 -85 -22 -133 21 -25 34 -31 64 -31 102 0
138 119 50 165 -36 19 -57 18 -92 -1z"/>
<path d="M907 2159 c-28 -16 -49 -73 -38 -102 13 -32 58 -67 88 -67 31 0 79
25 87 45 14 37 6 86 -19 110 -26 27 -84 34 -118 14z"/>
<path d="M3052 2044 c-53 -27 -102 -110 -79 -133 19 -19 52 -12 82 19 31 33
74 40 95 15 20 -24 7 -48 -38 -73 -23 -13 -42 -30 -42 -38 0 -9 18 -32 40 -51
43 -39 51 -71 24 -97 -21 -21 -36 -20 -67 4 -26 20 -53 25 -81 14 -24 -9 -19
-26 20 -73 54 -62 93 -79 209 -85 189 -9 284 32 332 144 20 47 29 233 14 287
-14 50 -37 65 -94 61 -32 -2 -41 -7 -37 -18 2 -8 6 -69 8 -136 4 -148 -7 -183
-67 -213 -70 -36 -90 -27 -106 49 -4 19 -17 54 -28 78 l-20 43 37 38 c57 58
45 111 -35 152 -57 28 -126 34 -167 13z"/>
<path d="M2096 2014 c-3 -8 -6 -31 -6 -50 l0 -34 238 2 237 3 0 45 0 45 -231
3 c-205 2 -232 1 -238 -14z"/>
<path d="M4056 2014 c-18 -17 -22 -79 -6 -89 5 -3 104 -3 220 1 l210 7 0 33
c0 66 8 64 -210 64 -167 0 -201 -2 -214 -16z"/>
<path d="M5190 1728 c-18 -35 -46 -78 -61 -96 -35 -39 -46 -77 -29 -97 18 -22
38 -18 70 13 l28 28 48 -24 c27 -13 70 -44 95 -69 l47 -45 31 23 c17 12 31 26
31 29 0 9 -97 91 -153 129 -49 33 -50 38 -14 79 l21 22 -34 35 c-19 19 -37 35
-41 35 -3 0 -21 -28 -39 -62z"/>
<path d="M1376 1683 c-16 -18 -68 -61 -117 -94 -49 -34 -89 -64 -89 -68 0 -3
9 -21 21 -40 l20 -34 38 37 c50 49 65 35 55 -56 -6 -62 -5 -65 21 -86 15 -12
32 -22 36 -22 5 0 9 26 9 59 l0 59 63 -5 c75 -6 88 4 95 76 5 59 -18 109 -80
167 l-43 41 -29 -34z m64 -105 c24 -26 26 -66 4 -75 -19 -7 -68 27 -72 51 -4
20 15 46 34 46 7 0 22 -10 34 -22z"/>
<path d="M4942 1410 c-30 -29 -28 -38 20 -87 23 -23 39 -45 36 -48 -3 -3 -47
1 -98 9 -51 9 -97 13 -101 10 -17 -10 -9 -49 17 -79 34 -40 137 -147 157 -163
12 -10 21 -11 36 -2 29 15 27 27 -19 81 -22 26 -40 49 -40 51 0 2 42 0 93 -4
91 -9 137 -1 137 22 0 5 -24 33 -53 62 -28 29 -74 79 -100 111 -27 31 -52 57
-56 57 -4 0 -17 -9 -29 -20z"/>
<path d="M1693 1327 c-18 -23 -61 -73 -96 -110 l-65 -67 19 -24 c37 -47 137
-126 152 -121 8 4 19 17 25 30 10 21 8 26 -11 36 -32 17 -77 61 -77 76 0 18
14 16 60 -7 79 -40 104 -18 49 44 -31 35 -31 56 -2 56 8 0 38 -17 65 -37 l50
-36 19 24 c10 13 19 27 19 31 0 3 -28 29 -62 56 -35 27 -72 59 -82 71 -11 12
-22 21 -25 21 -3 0 -20 -20 -38 -43z"/>
<path d="M2043 1065 c-53 -23 -52 -59 2 -144 49 -78 17 -98 -49 -31 -41 42
-61 47 -79 18 -25 -38 105 -147 159 -134 14 4 37 18 51 32 30 30 26 74 -11
114 -60 64 -55 105 9 74 20 -9 42 -25 48 -35 8 -14 14 -15 29 -6 35 22 19 57
-46 101 -43 29 -66 32 -113 11z"/>
<path d="M4470 1070 c-12 -8 -15 -32 -12 -137 3 -164 7 -183 37 -183 35 0 55
25 49 59 -5 26 -2 30 38 50 53 25 71 26 92 6 14 -14 18 -14 41 1 32 21 32 37
0 58 -13 9 -52 41 -87 72 -55 50 -111 84 -135 84 -4 0 -15 -5 -23 -10z m93
-125 c18 -13 18 -14 -2 -24 -28 -15 -31 -14 -31 14 0 28 7 30 33 10z"/>
<path d="M4060 909 c-13 -6 -32 -17 -41 -25 -16 -15 -16 -18 3 -50 11 -19 33
-73 48 -120 41 -128 80 -161 80 -69 0 24 4 46 10 50 5 3 32 -6 59 -20 59 -29
69 -31 78 -9 4 11 -6 27 -33 49 -38 32 -39 34 -26 67 18 52 15 79 -15 110 -23
24 -34 28 -82 27 -31 0 -67 -5 -81 -10z m130 -84 c0 -18 -7 -28 -26 -36 -34
-12 -64 -3 -64 21 0 23 26 39 63 40 22 0 27 -4 27 -25z"/>
<path d="M2366 889 c-27 -21 -36 -71 -16 -84 16 -10 90 -105 90 -116 0 -19
-49 -8 -88 21 -38 27 -42 28 -51 12 -20 -38 46 -102 105 -102 42 0 98 39 102
71 2 18 -11 41 -49 84 l-53 60 34 3 c21 2 42 -3 60 -16 52 -39 82 12 35 62
-21 22 -32 26 -83 26 -45 0 -66 -5 -86 -21z"/>
<path d="M2680 820 c-14 -26 -1 -45 35 -54 30 -8 31 -20 5 -115 -12 -41 -19
-80 -16 -88 3 -7 18 -13 34 -13 28 0 29 2 36 63 9 74 13 109 15 120 0 4 20 7
44 7 54 0 82 19 73 47 -7 23 -53 37 -158 49 -51 5 -57 4 -68 -16z"/>
<path d="M3677 803 c-10 -3 -16 -11 -13 -18 2 -7 10 -42 17 -76 17 -91 43
-137 86 -156 48 -20 92 -10 129 28 25 26 29 38 28 79 -1 28 -9 58 -19 72 -10
13 -15 16 -13 8 22 -66 22 -65 5 -52 -9 8 -19 22 -22 33 -11 33 -24 21 -22
-20 1 -47 -24 -81 -60 -81 -28 0 -37 20 -48 104 -11 90 -13 93 -68 79z"/>
<path d="M3108 732 c-14 -15 -29 -36 -32 -48 -4 -11 -33 -52 -66 -90 -33 -38
-60 -72 -60 -75 0 -10 58 -19 75 -13 8 4 15 12 15 20 0 31 95 8 135 -32 15
-15 36 -24 56 -24 30 0 31 1 25 32 -8 38 -83 204 -106 235 l-17 22 -25 -27z
m27 -112 c20 -23 17 -24 -20 -10 -14 5 -23 14 -20 20 9 15 20 12 40 -10z"/>
<path d="M3446 744 c-3 -9 -6 -53 -6 -99 0 -46 -4 -87 -10 -90 -15 -9 -12 -45
4 -51 53 -20 80 71 61 209 -5 37 -10 47 -25 47 -10 0 -21 -7 -24 -16z"/>
</g>
</svg>
